# xmcd
#
# Track frame offsets: 
#        150
#        22766
#        41614
#        59140
#        80764
#        99752
#        123866
#        138278
#        154726
#        180282
#        202529
#        223301
#        247017
#        264490
#
# Disc length: 3787 seconds
#
# Revision: 0
# Processed by: cddbd v1.5.2PL0 Copyright (c) Steve Scherf et al.
# Submitted via: ExactAudioCopy v1.0b1
#
DISCID=b60ec90e
DTITLE=Various Artist - Acoustic Lokal 2
DYEAR=2004
DGENRE=OPM
TTITLE0=Regine Velasquez - Dadalhin
TTITLE1=Ogie Alcasid and Aiza Seguerra - Huwag Ka Lang Mawawala
TTITLE2=Sarah Geronimo - The Gift
TTITLE3=Freestyle - Before I Let You Go
TTITLE4=Lani Misalucha - Muntik Nang Maabot Ang Langit
TTITLE5=Passage - Till My Heartaches End
TTITLE6=Jolina Magdangal - Is It Ok If I Call You Mine 
TTITLE7=Gary Valenciano and Kyla - Can We Just Stop And Talk Awhile
TTITLE8=Freestyle - Bakit Iniwan Na
TTITLE9=Ogie Alcasid - Kailangan Kita 
TTITLE10=Wency Cornejo - Ang Lahat Ko Ay Ikaw 
TTITLE11=First Circle - Ako'y Sa 'Yo 
TTITLE12=Regine Velasquez - Sa Piling Mo
TTITLE13=Sarah Geronimo - Forever's Not Enough
EXTD=
EXTT0=
EXTT1=
EXTT2=
EXTT3=
EXTT4=
EXTT5=
EXTT6=
EXTT7=
EXTT8=
EXTT9=
EXTT10=
EXTT11=
EXTT12=
EXTT13=
PLAYORDER=
